<svg xmlns="http://www.w3.org/2000/svg" viewBox="-60 -230 1220 1160" role="img" aria-label="Encaja"><path d="M 190 0 H 442.0 V -56.499999999999986 A 93.50000000000001 93.50000000000001 0 0 1 535.5 -150 H 688.5 A 93.50000000000001 93.50000000000001 0 0 1 782.0 -56.499999999999986 V 0 H 710 A 190 190 0 0 1 900 190 V 240.0 H 956.5 A 93.50000000000001 93.50000000000001 0 0 1 1050 333.5 V 486.5 A 93.50000000000001 93.50000000000001 0 0 1 956.5 580.0 H 900 V 630 A 190 190 0 0 1 710 820 H 782.0 V 763.5 A 93.50000000000001 93.50000000000001 0 0 0 688.5 670 H 535.5 A 93.50000000000001 93.50000000000001 0 0 0 442.0 763.5 V 820 H 190 A 190 190 0 0 1 0 630 V 580.0 H 56.499999999999986 A 93.50000000000001 93.50000000000001 0 0 0 150 486.5 V 333.5 A 93.50000000000001 93.50000000000001 0 0 0 56.499999999999986 240.0 H 0 V 190 A 190 190 0 0 1 190 0 Z" fill="#2B1638"/><g transform="translate(185 571) scale(0.683)" fill="#FFD23F"><path d="M327 -634Q471 -634 556.0 -571.0Q641 -508 645 -395V-281H309V-225Q309 -198 336 -198Q363 -198 363 -225V-251L642 -236V-215Q642 -106 559.0 -45.5Q476 15 327 15Q195 15 116.5 -45.0Q38 -105 21 -213Q18 -226 16.5 -253.0Q15 -280 15 -316Q15 -351 16.5 -378.5Q18 -406 21 -419Q37 -520 116.0 -577.0Q195 -634 327 -634ZM309 -389V-353H363V-389Q363 -416 336 -416Q309 -416 309 -389Z"/></g></svg>